<?xml version="1.0" encoding="iso-8859-1"?>
<!DOCTYPE svg PUBLIC "-//W3C//DTD SVG 1.1//EN" "http://www.w3.org/Graphics/SVG/1.1/DTD/svg11.dtd">
<svg 
 version="1.1" xmlns="http://www.w3.org/2000/svg" xmlns:xlink="http://www.w3.org/1999/xlink" x="0px" y="0px" width="512px"
	 height="512px" viewBox="0 0 512 512" style="enable-background:new 0 0 512 512;" xml:space="preserve"
><g id="afcae5a789ccd549f9c6e2a2f8100924"><g></g><path style="display: inline;" d="M317.671,256c0,34.063-27.608,61.671-61.671,61.671c-34.059,0-61.671-27.608-61.671-61.671
		s27.613-61.671,61.671-61.671C290.063,194.329,317.671,221.938,317.671,256z M379.347,300.051c-6.059,0-12.011-0.145-17.85-0.411
		c2.184,2.083,4.362,4.196,6.534,6.371c51.606,51.606,93.445,93.446,62.294,124.598c-30.478,30.478-72.986-10.691-124.594-62.299
		c-2.066-2.067-4.075-4.138-6.067-6.213c0.246,5.646,0.387,11.398,0.387,17.25c0,72.985,0,132.153-44.051,132.153
		c-43.107,0-44.051-59.168-44.051-132.153c0-6.113,0.149-12.115,0.42-18.003c-3.979,4.351-8.117,8.699-12.438,13.024
		c-51.611,51.607-93.446,93.447-124.598,62.299c-30.478-30.482,10.691-72.986,62.299-124.598c4.325-4.32,8.675-8.459,13.025-12.434
		c-5.889,0.266-11.889,0.415-18.002,0.415c-72.986,0-132.154,0-132.154-44.051c0-43.108,59.167-44.051,132.154-44.051
		c6.271,0,12.43,0.154,18.477,0.436c-6.621-5.76-13.266-11.943-19.836-18.514c-51.612-51.612-93.447-93.446-62.3-124.598
		c30.478-30.482,72.987,10.688,124.594,62.299c6.695,6.687,12.975,13.453,18.826,20.189c-0.299-6.242-0.466-12.617-0.466-19.108
		c0-72.986,0-132.154,44.051-132.154c43.106,0,44.051,59.167,44.051,132.154c0,6.113-0.149,12.114-0.419,18.002
		c3.979-4.35,8.117-8.704,12.438-13.025c51.611-51.607,93.446-93.446,124.598-62.299c30.478,30.482-10.691,72.986-62.299,124.598
		c-4.325,4.321-8.674,8.459-13.024,12.435c5.888-0.267,11.89-0.416,18.003-0.416c72.985,0,132.153,0,132.153,44.051
		C511.5,299.106,452.332,300.051,379.347,300.051z M335.294,256c0-43.723-35.571-79.295-79.294-79.295S176.705,212.277,176.705,256
		s35.572,79.294,79.295,79.294S335.294,299.723,335.294,256z"></path></g></svg>