<?xml version="1.0" encoding="iso-8859-1"?>
<!DOCTYPE svg PUBLIC "-//W3C//DTD SVG 1.1//EN" "http://www.w3.org/Graphics/SVG/1.1/DTD/svg11.dtd">
<svg 
 version="1.1" xmlns="http://www.w3.org/2000/svg" xmlns:xlink="http://www.w3.org/1999/xlink" x="0px" y="0px" width="512px"
	 height="512px" viewBox="0 0 512 512" style="enable-background:new 0 0 512 512;" xml:space="preserve"
><g id="afcae5a789ccd549f9c6e2a2f80f886b"><g></g><path style="display: inline;" d="M466.883,70.936c0.078-0.764,0.183-1.527,0.183-2.304C467.065,30.997,372.567,0.5,256,0.5
		C139.428,0.5,44.935,30.997,44.935,68.632c0,0.512,0.085,1.02,0.119,1.531c-0.02-0.009-0.043-0.017-0.065-0.025l0.106,0.563
		c0.156,1.671,0.437,3.333,0.959,4.982l76.128,395.612h0.578c0,0,9.941,40.204,133.305,40.204
		c123.362,0,133.31-40.204,133.31-40.204h-0.581l78.272-400.425C467.005,70.897,466.944,70.91,466.883,70.936z M348.983,438.169
		h0.412c0,0-7.146,28.896-95.813,28.896s-95.813-28.896-95.813-28.896h-0.417l-45.768-237.838
		c43.111,7.203,91.209,11.238,141.949,11.238c50.735,0,98.833-4.035,141.938-11.233L348.983,438.169z M374.603,82.799
		C341.386,91.244,299.263,95.887,256,95.887c-43.264,0-85.39-4.643-118.605-13.088c-19.095-4.846-31.758-10.023-39.609-14.167
		c7.852-4.136,20.515-9.313,39.609-14.168C170.61,46.029,212.736,41.377,256,41.377c43.263,0,85.386,4.652,118.603,13.087
		c19.093,4.855,31.756,10.032,39.609,14.168C406.358,72.776,393.695,77.953,374.603,82.799z"></path></g></svg>