<?xml version="1.0" encoding="iso-8859-1"?>
<!DOCTYPE svg PUBLIC "-//W3C//DTD SVG 1.1//EN" "http://www.w3.org/Graphics/SVG/1.1/DTD/svg11.dtd">
<svg 
 version="1.1" xmlns="http://www.w3.org/2000/svg" xmlns:xlink="http://www.w3.org/1999/xlink" x="0px" y="0px" width="512px"
	 height="512px" viewBox="0 0 512 512" style="enable-background:new 0 0 512 512;" xml:space="preserve"
><g id="afcae5a789ccd549f9c6e2a2f80f9720"><g></g><path style="display: inline;" d="M466.887,70.936c0.079-0.764,0.179-1.527,0.179-2.304C467.065,30.997,372.567,0.5,256,0.5
		C139.428,0.5,44.935,30.997,44.935,68.632c0,0.512,0.085,1.02,0.119,1.531c-0.02-0.009-0.043-0.017-0.065-0.025l0.106,0.563
		c0.156,1.671,0.437,3.333,0.96,4.982l76.127,395.612h0.578c0,0,9.941,40.204,133.305,40.204
		c123.364,0,133.306-40.204,133.306-40.204h-0.577l78.272-400.425C467.009,70.897,466.944,70.91,466.887,70.936z M137.395,54.464
		C170.615,46.029,212.732,41.377,256,41.377c43.263,0,85.386,4.652,118.603,13.087c19.093,4.855,31.76,10.032,39.613,14.168
		c-7.854,4.144-20.521,9.321-39.613,14.167C341.386,91.244,299.263,95.887,256,95.887c-43.268,0-85.385-4.643-118.605-13.088
		c-19.095-4.846-31.757-10.023-39.609-14.167C105.638,64.496,118.3,59.32,137.395,54.464z"></path></g></svg>